<svg width="100%" height="100%" viewBox="0 0 40 40" fill="none" xmlns="http://www.w3.org/2000/svg">
<g clip-path="url(#clip0_360_1632)">
<path d="M19.8244 36.2837C24.1374 36.2837 28.2737 34.5703 31.3234 31.5206C34.3731 28.4709 36.0864 24.3346 36.0864 20.0217C36.0864 15.7088 34.3731 11.5725 31.3234 8.52278C28.2737 5.47307 24.1374 3.75977 19.8244 3.75977C15.5115 3.75977 11.3752 5.47307 8.32551 8.52278C5.27581 11.5725 3.5625 15.7088 3.5625 20.0217C3.5625 24.3346 5.27581 28.4709 8.32551 31.5206C11.3752 34.5703 15.5115 36.2837 19.8244 36.2837V36.2837ZM21.7149 17.1515L19.6822 26.7155C19.5399 27.4067 19.7411 27.799 20.3001 27.799C20.6945 27.799 21.2901 27.6567 21.6946 27.2989L21.5157 28.1446C20.9323 28.8479 19.6456 29.3601 18.5377 29.3601C17.1087 29.3601 16.5009 28.5023 16.8953 26.6789L18.3954 19.6294C18.5255 19.0338 18.4076 18.8183 17.812 18.674L16.8953 18.5093L17.0619 17.7349L21.7169 17.1515H21.7149ZM19.8244 14.9399C19.2853 14.9399 18.7683 14.7257 18.3871 14.3445C18.0059 13.9633 17.7917 13.4462 17.7917 12.9071C17.7917 12.368 18.0059 11.851 18.3871 11.4697C18.7683 11.0885 19.2853 10.8744 19.8244 10.8744C20.3636 10.8744 20.8806 11.0885 21.2618 11.4697C21.643 11.851 21.8572 12.368 21.8572 12.9071C21.8572 13.4462 21.643 13.9633 21.2618 14.3445C20.8806 14.7257 20.3636 14.9399 19.8244 14.9399V14.9399Z" fill="currentColor"/>
</g>
<defs>
<clipPath id="clip0_360_1632">
<rect width="32.5239" height="32.5239" fill="white" transform="translate(3.5625 3.75977)"/>
</clipPath>
</defs>
</svg>
