<svg width="100%" height="100%" viewBox="0 0 40 40" fill="none" xmlns="http://www.w3.org/2000/svg">
<g clip-path="url(#clip0_360_1631)">
<path d="M36.0864 19.5569C36.0864 23.8698 34.3731 28.0061 31.3234 31.0558C28.2737 34.1055 24.1374 35.8188 19.8244 35.8188C15.5115 35.8188 11.3752 34.1055 8.32551 31.0558C5.27581 28.0061 3.5625 23.8698 3.5625 19.5569C3.5625 15.2439 5.27581 11.1076 8.32551 8.05794C11.3752 5.00823 15.5115 3.29492 19.8244 3.29492C24.1374 3.29492 28.2737 5.00823 31.3234 8.05794C34.3731 11.1076 36.0864 15.2439 36.0864 19.5569V19.5569ZM28.0164 13.3977C27.8712 13.253 27.6983 13.139 27.5081 13.0627C27.3178 12.9863 27.1142 12.9491 26.9092 12.9533C26.7043 12.9575 26.5023 13.003 26.3153 13.087C26.1283 13.171 25.9602 13.2919 25.821 13.4424L18.7613 22.4373L14.5068 18.1807C14.2178 17.9114 13.8355 17.7648 13.4406 17.7718C13.0456 17.7787 12.6688 17.9387 12.3894 18.2181C12.1101 18.4974 11.9501 18.8742 11.9431 19.2692C11.9362 19.6642 12.0828 20.0464 12.3521 20.3354L17.7307 25.7161C17.8756 25.8607 18.0482 25.9747 18.2381 26.0512C18.428 26.1277 18.6313 26.1652 18.836 26.1614C19.0407 26.1576 19.2425 26.1126 19.4295 26.0291C19.6164 25.9456 19.7846 25.8253 19.924 25.6754L28.0388 15.532C28.3154 15.2444 28.4682 14.8598 28.4644 14.4607C28.4606 14.0616 28.3005 13.68 28.0184 13.3977H28.0164Z" fill="currentColor"/>
</g>
<defs>
<clipPath id="clip0_360_1631">
<rect width="32.5239" height="32.5239" fill="white" transform="translate(3.5625 3.29492)"/>
</clipPath>
</defs>
</svg>
