<svg width="100%" height="100%" viewBox="0 0 40 40" fill="none" xmlns="http://www.w3.org/2000/svg">
<path d="M35.3425 34.4106H5.20428C4.6233 34.4106 4.08647 34.1007 3.79598 33.5975C3.5055 33.0944 3.50551 32.4745 3.79599 31.9714L18.8643 5.95224C19.155 5.44993 19.6914 5.14062 20.2718 5.14062C20.8522 5.14062 21.3885 5.44993 21.6793 5.95224L36.7476 31.9714C37.0379 32.4742 37.0381 33.0938 36.748 33.5968C36.4579 34.0999 35.9216 34.4101 35.3409 34.4106H35.3425ZM18.648 26.2797V29.5321H20.1653H20.271H20.3767H21.8972V26.2797H18.648ZM18.648 14.8963V23.0273H21.9004V14.8963H18.648Z" fill="currentColor"/>
</svg>
